<svg xmlns="http://www.w3.org/2000/svg" width="19" height="19" viewBox="0 0 19 19"><g fill="none" fill-rule="evenodd"><path stroke="#FFF" stroke-width="2" d="M10,14 C11.3674433,14 12.6066748,13.4510606 13.5093525,12.5615241 L13.5,5.5 C12.5966351,4.60570141 11.3715852,4 10,4 C7.23857625,4 5,6.23857625 5,9 C5,11.7614237 7.23857625,14 10,14 Z"/><line x1="13.5" x2="13.5" y1="3.5" y2="14" fill="#D8D8D8" stroke="#FFF" stroke-linecap="square" stroke-width="2"/><circle cx="17" cy="1.5" r="1.5" fill="#FFF"/><path stroke="#FFF" stroke-linecap="square" stroke-width="2" d="M17,5 C17,10.9770115 17,14.7126437 17,16.2068966 C17,17.7011494 16.3333333,18.2614943 15,17.887931"/><path stroke="#FFF" stroke-linecap="round" stroke-linejoin="round" d="M1,11 C1.33333333,13.3333333 2.5,15.1666667 4.5,16.5 C6.5,17.8333333 8.83333333,18.3333333 11.5,18"/></g></svg>